<?xml version="1.0" standalone="no"?>
<!DOCTYPE svg PUBLIC "-//W3C//DTD SVG 20010904//EN"
 "http://www.w3.org/TR/2001/REC-SVG-20010904/DTD/svg10.dtd">
<svg version="1.0" xmlns="http://www.w3.org/2000/svg"
 width="512.000000pt" height="512.000000pt" viewBox="0 0 512.000000 512.000000"
 preserveAspectRatio="xMidYMid meet">
<metadata>
Created by potrace 1.14, written by Peter Selinger 2001-2017
</metadata>
<g transform="translate(0.000000,512.000000) scale(0.100000,-0.100000)"
fill="#000000" stroke="none">
<path d="M2935 4376 c-147 -80 -188 -103 -315 -178 -74 -43 -142 -83 -150 -88
-8 -5 -31 -18 -50 -28 -19 -11 -111 -64 -205 -119 -93 -55 -343 -200 -555
-323 -212 -122 -405 -235 -430 -250 -25 -15 -137 -81 -250 -145 -113 -65 -216
-125 -230 -134 -14 -8 -34 -21 -45 -27 -180 -98 -636 -372 -653 -391 -38 -45
-54 -120 -51 -251 3 -143 18 -213 69 -317 81 -166 148 -230 366 -356 81 -46
163 -93 183 -105 20 -12 218 -126 441 -254 223 -128 421 -243 440 -255 29 -18
430 -249 560 -323 19 -11 75 -42 123 -71 l88 -51 97 56 c53 31 117 68 142 82
25 14 61 35 80 47 19 12 42 25 50 29 8 4 24 12 35 19 71 43 185 107 190 107 3
0 5 -37 5 -82 l0 -82 33 40 c19 21 75 91 126 154 51 63 96 116 101 118 5 2 46
-8 92 -22 46 -14 87 -26 91 -26 4 0 7 37 7 83 l0 83 308 179 c169 98 325 188
347 200 22 13 134 77 248 144 115 67 211 121 213 121 3 0 17 9 32 19 23 16
474 278 590 343 20 11 42 24 49 30 14 11 17 878 3 878 -8 0 -98 51 -370 210
-63 37 -135 78 -160 92 -25 14 -234 135 -465 268 -231 134 -433 251 -450 260
-16 10 -81 47 -144 84 -62 36 -115 66 -116 66 -2 0 -50 28 -107 62 -154 92
-246 138 -276 138 -15 0 -54 -15 -87 -34z"/>
</g>
</svg>
